<?xml version="1.0" standalone="no"?>
<!DOCTYPE svg PUBLIC "-//W3C//DTD SVG 20010904//EN"
 "http://www.w3.org/TR/2001/REC-SVG-20010904/DTD/svg10.dtd">
<svg version="1.0" xmlns="http://www.w3.org/2000/svg"
 width="1080.000000pt" height="1080.000000pt" viewBox="0 0 1080.000000 1080.000000"
 preserveAspectRatio="xMidYMid meet">
<metadata>
Created by potrace 1.14, written by Peter Selinger 2001-2017
</metadata>
<g transform="translate(0.000000,1080.000000) scale(0.100000,-0.100000)"
fill="#000000" stroke="none">
<path d="M5128 10795 c-1 -2 -46 -6 -98 -9 -160 -10 -200 -14 -480 -53 -246
-34 -702 -150 -950 -243 -47 -17 -103 -38 -125 -45 -89 -30 -315 -130 -515
-229 -388 -192 -853 -513 -1182 -813 -199 -182 -462 -462 -577 -613 -19 -25
-39 -49 -45 -55 -18 -16 -167 -221 -237 -325 -79 -118 -153 -237 -211 -341
-14 -24 -35 -62 -48 -84 -38 -68 -156 -306 -190 -385 -18 -41 -42 -97 -55
-125 -60 -133 -213 -586 -239 -707 -5 -23 -24 -98 -32 -128 -30 -116 -93 -478
-109 -635 -4 -33 -8 -70 -10 -83 -26 -160 -26 -902 -1 -1038 2 -11 7 -55 11
-99 4 -44 8 -82 10 -85 1 -3 6 -32 10 -65 9 -82 15 -127 21 -146 2 -9 7 -34
10 -55 2 -21 9 -54 14 -74 5 -19 11 -51 14 -70 34 -216 199 -748 304 -981 11
-24 32 -73 47 -109 30 -73 171 -356 204 -410 11 -19 24 -42 28 -50 17 -36 158
-267 174 -286 11 -11 19 -23 19 -27 0 -13 268 -385 300 -417 3 -3 38 -44 78
-92 223 -267 504 -540 794 -769 369 -291 735 -510 1198 -717 352 -157 842
-300 1270 -371 36 -6 79 -13 95 -16 17 -3 57 -8 90 -11 33 -3 62 -8 65 -9 32
-19 969 -29 1130 -12 192 20 294 35 505 72 74 14 185 37 240 52 33 8 71 17 85
20 134 24 605 184 820 279 67 30 443 216 470 233 8 5 67 40 130 77 284 167
603 400 850 622 193 173 475 471 600 632 19 25 37 47 41 50 14 11 208 281 264
365 65 100 185 294 185 300 0 2 14 28 31 57 43 72 168 322 219 438 83 188 167
418 243 665 18 56 86 326 93 365 3 14 7 32 9 40 2 8 7 31 10 50 3 19 10 55 15
80 5 25 12 61 15 80 2 19 7 46 9 60 8 41 35 259 43 345 17 180 8 1017 -12
1120 -2 11 -7 45 -10 75 -3 30 -17 120 -30 200 -32 188 -34 198 -45 240 -5 19
-11 46 -13 60 -3 14 -10 45 -17 70 -7 25 -14 59 -17 75 -3 17 -11 48 -18 70
-6 22 -17 58 -23 80 -178 626 -484 1238 -890 1774 -100 133 -165 211 -302 366
-82 92 -344 349 -450 441 -116 101 -355 289 -440 346 -30 21 -82 56 -115 79
-260 178 -646 383 -978 518 -228 93 -675 231 -862 267 -11 2 -42 8 -70 14 -27
5 -68 13 -90 16 -22 3 -43 8 -46 9 -3 2 -28 7 -55 10 -27 4 -62 9 -79 12 -66
12 -213 31 -305 39 -41 4 -93 8 -115 11 -49 5 -672 13 -677 8z"/>
</g>
</svg>
